<?xml version="1.0" encoding="UTF-8"?>
<svg id="Capa_1" data-name="Capa 1" xmlns="http://www.w3.org/2000/svg" viewBox="0 0 640.13 128.19">
  <defs>
    <style>
      .cls-1 {
        fill: currentColor;
      }

      .cls-1, .cls-2, .cls-3 {
        stroke-width: 0px;
      }

      .cls-2 {
        fill: #ee2630;
      }

      .cls-3 {
        fill: #ffd23b;
      }
    </style>
  </defs>
  <g>
    <g>
      <rect class="cls-2" x="62.95" y="102.71" width="37.67" height="22.6"/>
      <g>
        <path class="cls-1" d="M41.44,74.77c-6.39,1.39-12.16,2.08-17.28,2.08s-9.23-.63-12.31-1.9c-3.08-1.27-5.49-3.29-7.24-6.06-1.75-2.77-2.96-6.03-3.62-9.77-.66-3.74-1-8.45-1-14.12,0-11.88,1.67-20.16,5.02-24.84,3.35-4.67,9.51-7.01,18.5-7.01,5.19,0,11.19.81,18.01,2.44l-.36,9.95c-5.97-.9-10.93-1.36-14.88-1.36s-6.77.53-8.46,1.58c-1.69,1.06-2.94,3.06-3.75,6.02-.81,2.96-1.22,7.99-1.22,15.11s.83,12.05,2.49,14.79c1.66,2.75,4.98,4.12,9.95,4.12s10.27-.42,15.88-1.27l.27,10.22Z"/>
        <path class="cls-1" d="M85.14,44.64v18.82c.12,1.45.36,2.46.72,3.03.36.57,1.12.98,2.26,1.22l-.36,9.14c-3.08,0-5.53-.21-7.37-.63-1.84-.42-3.7-1.27-5.56-2.53-4.34,2.11-8.78,3.17-13.3,3.17-9.35,0-14.02-4.95-14.02-14.84,0-4.82,1.3-8.25,3.89-10.27,2.59-2.02,6.57-3.21,11.94-3.57l9.68-.72v-2.8c0-1.87-.42-3.15-1.27-3.85-.85-.69-2.2-1.04-4.07-1.04l-17.01.72-.36-8.41c6.45-1.75,12.59-2.62,18.41-2.62s10.01,1.21,12.58,3.62c2.56,2.41,3.85,6.28,3.85,11.58ZM64.78,56.58c-3.38.3-5.07,2.11-5.07,5.43s1.48,4.98,4.43,4.98c2.29,0,4.8-.36,7.51-1.09l1.36-.36v-9.68l-8.23.72Z"/>
        <path class="cls-1" d="M96.72,94.76V30.52h12.03v2.44c3.92-2.35,7.36-3.53,10.31-3.53,6.09,0,10.59,1.83,13.48,5.47,2.9,3.65,4.34,9.85,4.34,18.59s-1.6,14.82-4.8,18.23c-3.2,3.41-8.45,5.11-15.74,5.11-1.99,0-4.13-.18-6.42-.54l-1.09-.18v18.64h-12.12ZM116.72,40.29c-2.23,0-4.49.45-6.79,1.36l-1.09.45v23.71c2.71.36,4.92.54,6.6.54,3.5,0,5.9-1.03,7.19-3.08,1.3-2.05,1.95-5.55,1.95-10.5,0-8.32-2.62-12.49-7.87-12.49Z"/>
        <path class="cls-1" d="M145.94,24.73v-12.3h12.12v12.3h-12.12ZM145.94,75.76V30.52h12.12v45.24h-12.12Z"/>
        <path class="cls-1" d="M194.35,40.84h-11.13v18.55c0,1.81.05,3.09.14,3.85s.42,1.4,1,1.95c.57.54,1.46.81,2.67.81l6.88-.18.54,9.68c-4.04.9-7.12,1.36-9.23,1.36-5.43,0-9.14-1.22-11.13-3.67-1.99-2.44-2.99-6.95-2.99-13.53v-18.82h-5.34v-10.31h5.34v-12.58h12.12v12.58h11.13v10.31Z"/>
        <path class="cls-1" d="M236.87,44.64v18.82c.12,1.45.36,2.46.72,3.03.36.57,1.12.98,2.26,1.22l-.36,9.14c-3.08,0-5.53-.21-7.37-.63-1.84-.42-3.7-1.27-5.56-2.53-4.34,2.11-8.78,3.17-13.3,3.17-9.35,0-14.02-4.95-14.02-14.84,0-4.82,1.3-8.25,3.89-10.27,2.59-2.02,6.57-3.21,11.94-3.57l9.68-.72v-2.8c0-1.87-.42-3.15-1.27-3.85-.85-.69-2.2-1.04-4.07-1.04l-17.01.72-.36-8.41c6.45-1.75,12.59-2.62,18.41-2.62s10.01,1.21,12.58,3.62c2.56,2.41,3.85,6.28,3.85,11.58ZM216.51,56.58c-3.38.3-5.07,2.11-5.07,5.43s1.48,4.98,4.43,4.98c2.29,0,4.8-.36,7.51-1.09l1.36-.36v-9.68l-8.23.72Z"/>
        <path class="cls-1" d="M249,75.76V12.43h12.12v63.34h-12.12Z"/>
      </g>
      <g>
        <path class="cls-1" d="M116.17,107.77c-1.9,0-2.85.63-2.85,1.88,0,.56.23.98.71,1.28.47.3,1.57.72,3.3,1.28,1.73.56,2.95,1.19,3.64,1.89.7.71,1.04,1.79,1.04,3.25,0,1.86-.57,3.27-1.7,4.23-1.13.96-2.61,1.44-4.44,1.44-1.36,0-3.02-.21-4.99-.63l-.94-.18.37-2.79c2.33.31,4.12.47,5.35.47,1.84,0,2.77-.77,2.77-2.3,0-.56-.21-.99-.64-1.3-.43-.31-1.28-.65-2.55-1.02-2.02-.57-3.44-1.26-4.27-2.05-.83-.79-1.24-1.89-1.24-3.3,0-1.78.54-3.1,1.62-3.97,1.08-.87,2.56-1.3,4.44-1.3,1.29,0,2.92.17,4.91.52l.94.18-.29,2.85c-2.45-.28-4.19-.42-5.2-.42Z"/>
        <path class="cls-1" d="M123.42,109.65h3.45l1.59,10.08h.63l1.98-9.82h3.6l1.98,9.82h.63l1.59-10.08h3.45l-2.48,13.05h-5.48l-1.49-7.99-1.49,7.99h-5.48l-2.48-13.05Z"/>
        <path class="cls-1" d="M144.57,107.98v-3.55h3.5v3.55h-3.5ZM144.57,122.7v-13.05h3.5v13.05h-3.5Z"/>
        <path class="cls-1" d="M160.68,112.91c-2.16-.28-3.67-.42-4.53-.42s-1.42.08-1.67.23c-.25.16-.38.41-.38.74s.17.57.51.71c.34.13,1.21.32,2.61.57,1.4.25,2.4.67,2.99,1.24.59.58.89,1.51.89,2.79,0,2.82-1.75,4.23-5.25,4.23-1.15,0-2.54-.16-4.18-.47l-.84-.16.1-2.92c2.16.28,3.66.42,4.5.42s1.42-.08,1.72-.25c.3-.16.46-.41.46-.74s-.16-.57-.48-.73c-.32-.16-1.16-.35-2.51-.57-1.35-.23-2.35-.61-3.02-1.15-.66-.54-.99-1.5-.99-2.89s.47-2.43,1.41-3.13,2.15-1.06,3.63-1.06c1.03,0,2.43.17,4.2.5l.86.16-.05,2.9Z"/>
        <path class="cls-1" d="M173.01,112.91c-2.16-.28-3.67-.42-4.53-.42s-1.42.08-1.67.23c-.25.16-.38.41-.38.74s.17.57.51.71c.34.13,1.21.32,2.61.57,1.4.25,2.4.67,2.99,1.24.59.58.89,1.51.89,2.79,0,2.82-1.75,4.23-5.25,4.23-1.15,0-2.54-.16-4.18-.47l-.84-.16.1-2.92c2.16.28,3.66.42,4.5.42s1.42-.08,1.72-.25c.3-.16.46-.41.46-.74s-.16-.57-.48-.73c-.32-.16-1.16-.35-2.51-.57-1.35-.23-2.35-.61-3.02-1.15-.66-.54-.99-1.5-.99-2.89s.47-2.43,1.41-3.13c.94-.71,2.15-1.06,3.63-1.06,1.03,0,2.43.17,4.2.5l.86.16-.05,2.9Z"/>
        <path class="cls-1" d="M192.12,122.7h-10.11v-17.76h3.6v14.57h6.5v3.19Z"/>
        <path class="cls-1" d="M194.03,107.98v-3.55h3.5v3.55h-3.5ZM194.03,122.7v-13.05h3.5v13.05h-3.5Z"/>
        <path class="cls-1" d="M205.65,109.33c.91,0,2.06.14,3.47.42l.7.16-.1,2.77c-1.38-.14-2.39-.21-3.06-.21-1.2,0-2,.26-2.39.77s-.59,1.48-.59,2.91.2,2.41.59,2.94c.39.53,1.2.79,2.41.79l3.03-.21.1,2.79c-1.86.37-3.28.55-4.26.55-1.93,0-3.32-.54-4.16-1.63-.84-1.09-1.27-2.83-1.27-5.23s.44-4.14,1.31-5.21c.87-1.07,2.27-1.61,4.2-1.61Z"/>
        <path class="cls-1" d="M215.82,119.4c.41.36,1,.54,1.76.54,1.62,0,3.06-.05,4.33-.16l.73-.08.05,2.58c-2,.49-3.81.73-5.43.73-1.97,0-3.39-.52-4.28-1.57-.89-1.04-1.33-2.74-1.33-5.09,0-4.68,1.92-7.03,5.77-7.03s5.69,1.97,5.69,5.9l-.26,2.43h-7.68c.02.8.23,1.38.64,1.74ZM219.67,115c0-1.04-.17-1.77-.5-2.18-.33-.41-.91-.61-1.74-.61s-1.41.21-1.75.64c-.34.43-.52,1.15-.54,2.15h4.52Z"/>
        <path class="cls-1" d="M229.12,122.7h-3.5v-13.05h3.47v.73c1.18-.7,2.27-1.04,3.26-1.04,1.74,0,2.94.51,3.6,1.54.66,1.03.99,2.61.99,4.75v7.08h-3.5v-6.97c0-1.12-.13-1.94-.39-2.47-.26-.53-.78-.79-1.57-.79-.71,0-1.4.12-2.06.37l-.31.1v9.77Z"/>
        <path class="cls-1" d="M249.43,112.91c-2.16-.28-3.67-.42-4.53-.42s-1.42.08-1.67.23c-.25.16-.38.41-.38.74s.17.57.51.71c.34.13,1.21.32,2.61.57,1.4.25,2.4.67,2.99,1.24.59.58.89,1.51.89,2.79,0,2.82-1.75,4.23-5.25,4.23-1.15,0-2.54-.16-4.18-.47l-.84-.16.1-2.92c2.16.28,3.66.42,4.5.42s1.42-.08,1.72-.25c.3-.16.46-.41.46-.74s-.16-.57-.48-.73c-.32-.16-1.16-.35-2.51-.57-1.35-.23-2.35-.61-3.02-1.15-.66-.54-.99-1.5-.99-2.89s.47-2.43,1.41-3.13,2.15-1.06,3.63-1.06c1.03,0,2.43.17,4.2.5l.86.16-.05,2.9Z"/>
        <path class="cls-1" d="M255.9,119.4c.41.36,1,.54,1.76.54,1.62,0,3.06-.05,4.33-.16l.73-.08.05,2.58c-2,.49-3.81.73-5.43.73-1.97,0-3.39-.52-4.28-1.57-.89-1.04-1.33-2.74-1.33-5.09,0-4.68,1.92-7.03,5.77-7.03s5.69,1.97,5.69,5.9l-.26,2.43h-7.68c.02.8.23,1.38.64,1.74ZM259.75,115c0-1.04-.17-1.77-.5-2.18-.33-.41-.91-.61-1.74-.61s-1.41.21-1.75.64c-.34.43-.52,1.15-.54,2.15h4.52Z"/>
        <path class="cls-1" d="M276.8,104.43v18.28h-3.47v-.55c-1.22.57-2.27.86-3.16.86-1.9,0-3.22-.55-3.97-1.65-.75-1.1-1.12-2.83-1.12-5.21s.45-4.11,1.34-5.2c.9-1.09,2.25-1.63,4.06-1.63.56,0,1.33.09,2.32.26l.5.11v-5.28h3.5ZM272.93,119.57l.37-.08v-6.87c-.96-.17-1.81-.26-2.56-.26-1.41,0-2.11,1.25-2.11,3.76,0,1.36.16,2.32.47,2.9.31.57.83.86,1.55.86s1.48-.1,2.28-.31Z"/>
        <path class="cls-1" d="M286.09,122.7v-17.76h6.14l3.13,12.95,3.13-12.95h6.14v17.76h-3.6v-13.73h-.39l-3.47,12.95h-3.6l-3.47-12.95h-.39v13.73h-3.6Z"/>
        <path class="cls-1" d="M308.73,111.12c.92-1.19,2.46-1.79,4.62-1.79s3.7.6,4.62,1.79c.92,1.19,1.38,2.87,1.38,5.03,0,4.58-2,6.87-6.01,6.87s-6.01-2.29-6.01-6.87c0-2.16.46-3.83,1.38-5.03ZM311.43,119.1c.36.63,1,.94,1.92.94s1.56-.31,1.92-.94c.36-.63.54-1.61.54-2.95s-.18-2.32-.54-2.93c-.36-.61-1-.91-1.92-.91s-1.56.3-1.92.91c-.36.61-.54,1.58-.54,2.93s.18,2.32.54,2.95Z"/>
        <path class="cls-1" d="M325.42,122.7h-3.5v-13.05h3.47v.73c1.18-.7,2.27-1.04,3.26-1.04,1.74,0,2.94.51,3.6,1.54.66,1.03.99,2.61.99,4.75v7.08h-3.5v-6.97c0-1.12-.13-1.94-.39-2.47-.26-.53-.78-.79-1.57-.79-.71,0-1.4.12-2.06.37l-.31.1v9.77Z"/>
        <path class="cls-1" d="M339.87,119.4c.41.36,1,.54,1.76.54,1.62,0,3.06-.05,4.33-.16l.73-.08.05,2.58c-2,.49-3.81.73-5.43.73-1.97,0-3.39-.52-4.28-1.57-.89-1.04-1.33-2.74-1.33-5.09,0-4.68,1.92-7.03,5.77-7.03s5.69,1.97,5.69,5.9l-.26,2.43h-7.68c.02.8.23,1.38.64,1.74ZM343.72,115c0-1.04-.17-1.77-.5-2.18-.33-.41-.91-.61-1.74-.61s-1.41.21-1.75.64c-.34.43-.52,1.15-.54,2.15h4.52Z"/>
        <path class="cls-1" d="M348.26,109.65h3.45l2.38,10.08h.6l2.38-10.08h3.45l-4.6,18.54h-3.42l1.44-5.48h-2.45l-3.21-13.05Z"/>
        <path class="cls-1" d="M366.98,108.13v-3.19h13.06v3.19h-4.7v14.57h-3.6v-14.57h-4.75Z"/>
        <path class="cls-1" d="M380.64,122.7v-13.05h3.47v1.38c1.46-.87,2.85-1.44,4.18-1.7v3.53c-1.41.3-2.62.6-3.63.91l-.52.18v8.75h-3.5Z"/>
        <path class="cls-1" d="M400.35,113.72v5.43c.03.42.1.71.21.88.1.17.32.28.65.35l-.1,2.64c-.89,0-1.6-.06-2.13-.18-.53-.12-1.07-.37-1.61-.73-1.25.61-2.53.91-3.84.91-2.7,0-4.05-1.43-4.05-4.28,0-1.39.37-2.38,1.12-2.96.75-.58,1.9-.93,3.45-1.03l2.79-.21v-.81c0-.54-.12-.91-.37-1.11-.24-.2-.64-.3-1.17-.3l-4.91.21-.1-2.43c1.86-.5,3.63-.76,5.31-.76s2.89.35,3.63,1.04c.74.7,1.11,1.81,1.11,3.34ZM394.48,117.17c-.98.09-1.46.61-1.46,1.57s.43,1.44,1.28,1.44c.66,0,1.38-.1,2.17-.31l.39-.1v-2.79l-2.38.21Z"/>
        <path class="cls-1" d="M407.19,122.7h-3.5v-13.05h3.47v.73c1.18-.7,2.27-1.04,3.26-1.04,1.74,0,2.94.51,3.6,1.54.66,1.03.99,2.61.99,4.75v7.08h-3.5v-6.97c0-1.12-.13-1.94-.39-2.47-.26-.53-.78-.79-1.57-.79-.71,0-1.4.12-2.06.37l-.31.1v9.77Z"/>
        <path class="cls-1" d="M427.51,112.91c-2.16-.28-3.67-.42-4.53-.42s-1.42.08-1.67.23c-.25.16-.38.41-.38.74s.17.57.51.71c.34.13,1.21.32,2.61.57,1.4.25,2.4.67,2.99,1.24.59.58.89,1.51.89,2.79,0,2.82-1.75,4.23-5.25,4.23-1.15,0-2.54-.16-4.18-.47l-.84-.16.1-2.92c2.16.28,3.66.42,4.5.42s1.42-.08,1.72-.25c.3-.16.46-.41.46-.74s-.16-.57-.48-.73c-.32-.16-1.16-.35-2.51-.57-1.35-.23-2.35-.61-3.02-1.15-.66-.54-.99-1.5-.99-2.89s.47-2.43,1.41-3.13,2.15-1.06,3.63-1.06,2.43.17,4.2.5l.86.16-.05,2.9Z"/>
        <path class="cls-1" d="M434.58,112.63v10.08h-3.5v-10.08h-1.41v-2.98h1.41v-.57c0-1.88.28-3.18.84-3.89.56-.71,1.55-1.07,2.98-1.07.63,0,1.44.09,2.43.26l.55.08-.05,2.85c-.77-.04-1.41-.05-1.93-.05s-.87.14-1.04.42c-.17.28-.26.76-.26,1.44v.55h3.16v2.98h-3.16Z"/>
        <path class="cls-1" d="M443.19,119.4c.41.36,1,.54,1.76.54,1.62,0,3.06-.05,4.33-.16l.73-.08.05,2.58c-2,.49-3.81.73-5.43.73-1.97,0-3.39-.52-4.28-1.57-.89-1.04-1.33-2.74-1.33-5.09,0-4.68,1.92-7.03,5.77-7.03s5.69,1.97,5.69,5.9l-.26,2.43h-7.68c.02.8.23,1.38.64,1.74ZM447.04,115c0-1.04-.17-1.77-.5-2.18-.33-.41-.91-.61-1.74-.61s-1.41.21-1.75.64c-.34.43-.52,1.15-.54,2.15h4.52Z"/>
        <path class="cls-1" d="M452.99,122.7v-13.05h3.47v1.38c1.46-.87,2.85-1.44,4.18-1.7v3.53c-1.41.3-2.62.6-3.63.91l-.52.18v8.75h-3.5Z"/>
        <path class="cls-1" d="M481.05,120.81c-1.11,1.47-3.01,2.21-5.71,2.21s-4.6-.74-5.7-2.21c-1.11-1.47-1.66-3.77-1.66-6.91s.55-5.46,1.66-6.98c1.1-1.52,3.01-2.29,5.7-2.29s4.6.76,5.71,2.29c1.11,1.52,1.66,3.85,1.66,6.98s-.55,5.44-1.66,6.91ZM472.46,118.51c.51.91,1.48,1.37,2.89,1.37s2.37-.46,2.89-1.37c.51-.91.77-2.45.77-4.6s-.26-3.71-.78-4.69c-.52-.97-1.48-1.46-2.87-1.46s-2.35.49-2.87,1.46c-.52.97-.78,2.54-.78,4.69s.26,3.68.77,4.6Z"/>
        <path class="cls-1" d="M485.47,128.19v-18.54h3.47v.7c1.13-.68,2.12-1.02,2.98-1.02,1.76,0,3.06.53,3.89,1.58.84,1.05,1.25,2.84,1.25,5.37s-.46,4.28-1.38,5.26c-.92.98-2.44,1.48-4.54,1.48-.57,0-1.19-.05-1.85-.16l-.31-.05v5.38h-3.5ZM491.24,112.47c-.64,0-1.3.13-1.96.39l-.31.13v6.84c.78.1,1.42.16,1.91.16,1.01,0,1.7-.3,2.08-.89.37-.59.56-1.6.56-3.03,0-2.4-.76-3.6-2.27-3.6Z"/>
        <path class="cls-1" d="M503.19,119.4c.41.36,1,.54,1.76.54,1.62,0,3.06-.05,4.33-.16l.73-.08.05,2.58c-2,.49-3.81.73-5.43.73-1.97,0-3.39-.52-4.28-1.57-.89-1.04-1.33-2.74-1.33-5.09,0-4.68,1.92-7.03,5.77-7.03s5.69,1.97,5.69,5.9l-.26,2.43h-7.68c.02.8.23,1.38.64,1.74ZM507.04,115c0-1.04-.17-1.77-.5-2.18-.33-.41-.91-.61-1.74-.61s-1.41.21-1.75.64c-.34.43-.52,1.15-.54,2.15h4.52Z"/>
        <path class="cls-1" d="M512.99,122.7v-13.05h3.47v1.38c1.46-.87,2.85-1.44,4.18-1.7v3.53c-1.41.3-2.62.6-3.63.91l-.52.18v8.75h-3.5Z"/>
        <path class="cls-1" d="M532.71,113.72v5.43c.03.42.1.71.21.88.1.17.32.28.65.35l-.1,2.64c-.89,0-1.6-.06-2.13-.18-.53-.12-1.07-.37-1.61-.73-1.25.61-2.53.91-3.84.91-2.7,0-4.05-1.43-4.05-4.28,0-1.39.37-2.38,1.12-2.96.75-.58,1.9-.93,3.45-1.03l2.79-.21v-.81c0-.54-.12-.91-.37-1.11-.24-.2-.64-.3-1.17-.3l-4.91.21-.1-2.43c1.86-.5,3.63-.76,5.31-.76s2.89.35,3.63,1.04c.74.7,1.11,1.81,1.11,3.34ZM526.83,117.17c-.98.09-1.46.61-1.46,1.57s.43,1.44,1.28,1.44c.66,0,1.38-.1,2.17-.31l.39-.1v-2.79l-2.38.21Z"/>
        <path class="cls-1" d="M543.28,112.63h-3.21v5.35c0,.52.01.89.04,1.11.03.22.12.4.29.56.17.16.42.23.77.23l1.98-.05.16,2.79c-1.17.26-2.05.39-2.66.39-1.57,0-2.64-.35-3.21-1.06-.57-.71-.86-2.01-.86-3.9v-5.43h-1.54v-2.98h1.54v-3.63h3.5v3.63h3.21v2.98Z"/>
        <path class="cls-1" d="M546.26,111.12c.92-1.19,2.46-1.79,4.62-1.79s3.7.6,4.62,1.79c.92,1.19,1.38,2.87,1.38,5.03,0,4.58-2,6.87-6.01,6.87s-6.01-2.29-6.01-6.87c0-2.16.46-3.83,1.38-5.03ZM548.96,119.1c.36.63,1,.94,1.92.94s1.56-.31,1.92-.94c.36-.63.54-1.61.54-2.95s-.18-2.32-.54-2.93c-.36-.61-1-.91-1.92-.91s-1.56.3-1.92.91c-.36.61-.54,1.58-.54,2.93s.18,2.32.54,2.95Z"/>
        <path class="cls-1" d="M559.45,122.7v-13.05h3.47v1.38c1.46-.87,2.85-1.44,4.18-1.7v3.53c-1.41.3-2.62.6-3.63.91l-.52.18v8.75h-3.5Z"/>
      </g>
      <rect fill="#FFFFFF" stroke-width="0" x="78.46" y="105.14" width="5.98" height="17.56"/>
      <rect fill="#FFFFFF" stroke-width="0" x="78.46" y="105.14" width="5.98" height="17.56" transform="translate(195.37 32.47) rotate(90)"/>
    </g>
    <g>
      <path class="cls-3" d="M371.9,39.39c-2.87,0-4.89.74-6.06,2.22-1.18,1.48-1.8,3.97-1.85,7.46h15.65c0-3.62-.57-6.14-1.72-7.55-1.15-1.42-3.15-2.13-6.02-2.13Z"/>
      <path class="cls-3" d="M560.1,39.39c-2.87,0-4.89.74-6.06,2.22-1.18,1.48-1.79,3.97-1.85,7.46h15.65c0-3.62-.57-6.14-1.72-7.55-1.15-1.42-3.15-2.13-6.02-2.13Z"/>
    </g>
  </g>
  <path class="cls-3" d="M626.62,0h-331.87c-7.46,0-13.5,6.05-13.5,13.5v65.75c0,7.46,6.05,13.5,13.5,13.5h331.87c7.46,0,13.5-6.05,13.5-13.5V13.5c0-7.46-6.05-13.5-13.5-13.5ZM339.28,71.87c-3.92,3.32-9.05,4.98-15.38,4.98-4.71,0-10.47-.72-17.28-2.17l-3.26-.63,1.27-9.68c8.08,1.09,14.26,1.63,18.55,1.63,6.39,0,9.59-2.65,9.59-7.96,0-1.93-.74-3.44-2.22-4.52-1.48-1.09-4.42-2.26-8.82-3.53-7-1.99-11.93-4.36-14.79-7.1-2.87-2.74-4.3-6.56-4.3-11.45,0-6.15,1.87-10.74,5.61-13.75,3.74-3.02,8.87-4.52,15.38-4.52,4.46,0,10.13.6,17.01,1.81l3.26.63-1,9.86c-8.5-.96-14.51-1.45-18.01-1.45-6.58,0-9.86,2.17-9.86,6.51,0,1.93.81,3.41,2.44,4.43,1.63,1.03,5.44,2.5,11.45,4.43,6,1.93,10.21,4.12,12.62,6.56,2.41,2.44,3.62,6.2,3.62,11.26,0,6.46-1.96,11.34-5.88,14.66ZM390.68,58.3h-26.6c.06,2.78.8,4.78,2.22,6.02,1.42,1.24,3.45,1.85,6.11,1.85,5.61,0,10.62-.18,15.02-.54l2.53-.27.18,8.96c-6.94,1.69-13.21,2.53-18.82,2.53-6.82,0-11.76-1.81-14.84-5.43-3.08-3.62-4.62-9.5-4.62-17.64,0-16.23,6.67-24.34,20-24.34s19.72,6.82,19.72,20.45l-.9,8.41ZM426.78,41.65c-4.89,1.03-9.08,2.08-12.58,3.17l-1.81.63v30.31h-12.12V30.52h12.03v4.79c5.07-3.02,9.89-4.98,14.48-5.88v12.21ZM461.16,75.8h-20.63l-10.86-46.35h12.67l7.24,36.03h2.53l7.6-36.03h12.3l-10.86,46.35ZM491.11,75.76h-12.12V29.41h12.12v46.35ZM491.11,24.73h-12.12v-12.31h12.12v12.31ZM514.5,63.23c1.36,1.84,4.15,2.76,8.37,2.76l10.5-.72.36,9.68c-6.45,1.27-11.37,1.9-14.75,1.9-6.7,0-11.51-1.88-14.43-5.66-2.93-3.77-4.39-9.82-4.39-18.14s1.51-14.34,4.53-18.05c3.01-3.71,7.87-5.56,14.57-5.56,3.14,0,7.15.48,12.03,1.45l2.44.54-.36,9.59c-4.77-.48-8.29-.72-10.59-.72-4.16,0-6.92.89-8.28,2.67-1.36,1.78-2.04,5.14-2.04,10.09s.68,8.34,2.04,10.18ZM578.87,58.3h-26.6c.06,2.78.8,4.78,2.22,6.02,1.42,1.24,3.45,1.85,6.11,1.85,5.61,0,10.62-.18,15.02-.54l2.53-.27.18,8.96c-6.94,1.69-13.21,2.53-18.82,2.53-6.82,0-11.76-1.81-14.84-5.43-3.08-3.62-4.61-9.5-4.61-17.64,0-16.23,6.66-24.34,20-24.34s19.72,6.82,19.72,20.45l-.91,8.41ZM604.2,76.84c-3.98,0-8.81-.54-14.48-1.63l-2.89-.54.36-10.13c7.48.97,12.68,1.45,15.61,1.45s4.92-.29,5.97-.86c1.05-.57,1.58-1.43,1.58-2.58s-.56-1.99-1.67-2.53c-1.12-.54-4.01-1.21-8.69-1.99-4.67-.78-8.16-2.11-10.45-3.98-2.29-1.87-3.44-5.2-3.44-10s1.63-8.41,4.89-10.86c3.26-2.44,7.45-3.67,12.58-3.67,3.56,0,8.41.57,14.57,1.72l2.99.54-.18,10.04c-7.48-.96-12.71-1.45-15.7-1.45s-4.92.27-5.79.81c-.87.54-1.31,1.4-1.31,2.58s.59,1.99,1.76,2.44c1.18.45,4.19,1.12,9.05,1.99,4.85.87,8.31,2.31,10.36,4.3,2.05,1.99,3.08,5.22,3.08,9.68,0,9.77-6.06,14.66-18.19,14.66Z"/>
</svg>
